<?xml version="1.0"?>
<svg xmlns="http://www.w3.org/2000/svg" viewBox="0 0 64 64" width="512" height="512"><path d="m58.36121 26.41672a3.05318 3.05318 0 0 0 -4.01338.78617l-5.6101 7.48011a7.16137 7.16137 0 0 1 -4.59753 2.77454l-19.1402 2.54246 13.17322-5.28961a2.18852 2.18852 0 0 0 1.43432-2.119 2.13151 2.13151 0 0 0 -2.75454-1.93117l-17.50693 5.38378a8.40134 8.40134 0 0 0 -5.03607 3.998l-3.31 5.958-5 15h15l.75226-6.01837a3.16886 3.16886 0 0 1 2.14231-2.61322l25.43227-8.47736a7.16184 7.16184 0 0 0 4.02234-3.36462l6.04682-9.90021a3.05315 3.05315 0 0 0 -1.03476-4.20949z" fill="#efcb9a"/><path d="m55.40749 14.42252-4.37 4.37a4.12243 4.12243 0 0 1 -5.83-5.83l4.37-4.37z" fill="#fff"/><path d="m55.4125 14.4175 4.38-4.38a4.12243 4.12243 0 0 0 -5.83-5.83l-4.38 4.38z" fill="#fd614b"/><path d="m14.42 8.59-5.83 5.83-4.38-4.38a4.12243 4.12243 0 0 1 5.83-5.83z" fill="#fecd0d"/><path d="m18.79247 12.96249-4.37-4.37-5.83 5.83 4.37 4.37a4.12243 4.12243 0 1 0 5.83-5.83z" fill="#fff"/><circle cx="32" cy="9" fill="#8ce2ff" r="6"/><path d="m27.75779 13.375 8.4854-8.4854" fill="#8ce2ff"/><path d="m26 19a4 4 0 0 0 0 8h6v-8z" fill="#fff"/><path d="m38 19h-6v8h6a4 4 0 0 0 0-8z" fill="#27ae60"/><path d="m13.24219 24.7441a5.91932 5.91932 0 0 1 0 8.419 6.03172 6.03172 0 0 1 -8.4844 0 5.91932 5.91932 0 0 1 0-8.419 6.03172 6.03172 0 0 1 8.4844 0z" fill="#fd614b"/><path d="m69.41 20.42-5.83-5.83" fill="none"/><path d="m38.53516 35.6416a3.12839 3.12839 0 0 0 .72851-5.5166 3.11161 3.11161 0 0 0 -2.7041-.4209l-17.48828 5.3779a9.34745 9.34745 0 0 0 -5.63574 4.47461l-3.30957 5.958a.96366.96366 0 0 0 -.07422.16894l-5 15a.999.999 0 0 0 .94824 1.31645h15a1.00055 1.00055 0 0 0 .99219-.876l.752-6.01855a2.181 2.181 0 0 1 1.4668-1.78906l25.43261-8.47657a8.10251 8.10251 0 0 0 4.55958-3.792l6.04582-9.90036a4.05281 4.05281 0 0 0 -6.70117-4.54394l-5.61033 7.47948a6.11674 6.11674 0 0 1 -3.92871 2.38379l-11.24609 1.49321zm5.76367 2.80371a8.1194 8.1194 0 0 0 5.23828-3.16308l5.61035-7.4795a2.053 2.053 0 0 1 3.39454 2.30176l-6.07031 9.94336a6.14293 6.14293 0 0 1 -3.46094 2.89453l-25.43262 8.47754a4.18892 4.18892 0 0 0 -2.81836 3.4375l-.64258 5.14258h-12.72949l4.5313-13.5957 3.26464-5.876a7.36872 7.36872 0 0 1 4.45601-3.5283l17.50781-5.38379a1.11873 1.11873 0 0 1 .97656.15234 1.13066 1.13066 0 0 1 .48536.88282 1.19475 1.19475 0 0 1 -.80958 1.13086l-13.17285 5.29a1 1 0 0 0 .50489 1.91894z"/><path d="m32 2a7 7 0 1 0 7 7 7.0085 7.0085 0 0 0 -7-7zm0 2a4.96544 4.96544 0 0 1 2.83191.88684l-6.94507 6.94507a4.99164 4.99164 0 0 1 4.11316-7.83191zm0 10a4.95621 4.95621 0 0 1 -2.66687-.78625l6.88062-6.88062a4.98091 4.98091 0 0 1 -4.21375 7.66687z"/><path d="m38 18h-12a5 5 0 0 0 0 10h12a5 5 0 0 0 0-10zm-15 5a3.00328 3.00328 0 0 1 3-3h5v6h-5a3.00328 3.00328 0 0 1 -3-3zm15 3h-5v-6h5a3 3 0 0 1 0 6z"/><path d="m9 35.90332a7.00009 7.00009 0 0 0 4.94629-2.03027 6.91884 6.91884 0 0 0 0-9.83887 7.04038 7.04038 0 0 0 -9.89258 0 6.91884 6.91884 0 0 0 0 9.83887 6.99843 6.99843 0 0 0 4.94629 2.03027zm5-6.95019a4.90073 4.90073 0 0 1 -1.46191 3.5 4.97253 4.97253 0 0 1 -2.44434 1.32055v-9.6405a4.9739 4.9739 0 0 1 2.44434 1.32092 4.89682 4.89682 0 0 1 1.46191 3.49903zm-8.53809-3.499a4.98483 4.98483 0 0 1 2.63184-1.36613v9.73078a4.98327 4.98327 0 0 1 -2.63184-1.36566 4.91952 4.91952 0 0 1 0-6.999z"/><path d="m19.499 12.251-8.75-8.752a5.12652 5.12652 0 0 0 -7.25 7.25h.001l8.751 8.75a5.12514 5.12514 0 0 0 7.248-7.248zm-14.58494-7.336a3.13155 3.13155 0 0 1 4.4209-.001l3.66779 3.66815-4.42023 4.42029-3.66752-3.66744a3.13125 3.13125 0 0 1 -.00094-4.42zm13.17094 13.17a3.13213 3.13213 0 0 1 -4.41992 0l-3.6685-3.6685 4.42011-4.4201 3.66831 3.6686a3.13036 3.13036 0 0 1 0 4.42z"/><path d="m48.125 20.99707a5.10866 5.10866 0 0 0 3.624-1.498l8.752-8.75a5.12652 5.12652 0 0 0 -7.25-7.25v.00093l-8.75 8.751a5.12207 5.12207 0 0 0 3.624 8.74609zm6.54-16.082a3.1257 3.1257 0 1 1 4.42094 4.41993l-3.66815 3.66779-4.42023-4.42027zm-8.75 8.75 3.6685-3.66849 4.4201 4.42011-3.6686 3.66831a3.12536 3.12536 0 0 1 -4.42-4.42z"/></svg>
